<svg width="40" height="28" viewBox="0 0 40 28" fill="none" xmlns="http://www.w3.org/2000/svg">
<rect x="0.5" y="0.5" width="39" height="27" rx="3.5" fill="#1F72CD" stroke="#D9D9D9"/>
<path fill-rule="evenodd" clip-rule="evenodd" d="M7.63556 9.91669L4 18.3712H8.35227L8.89182 17.0232H10.1251L10.6647 18.3712H15.4553V17.3424L15.8822 18.3712H18.3603L18.7871 17.3206V18.3712H28.7503L29.9618 17.0582L31.0962 18.3712L36.2135 18.3821L32.5665 14.1676L36.2135 9.91669H31.1756L29.9963 11.2054L28.8976 9.91669H18.0589L17.1282 12.0989L16.1757 9.91669H11.8325V10.9105L11.3493 9.91669H7.63556ZM22.5135 11.1172H28.2349L29.9848 13.1036L31.7911 11.1172H33.541L30.8822 14.1664L33.541 17.1803H31.7117L29.9618 15.1709L28.1463 17.1803H22.5135V11.1172ZM23.9264 13.4808V12.3733V12.3723H27.4964L29.0541 14.1434L27.4273 15.9242H23.9264V14.7152H27.0476V13.4808H23.9264ZM8.4777 11.1172H10.5992L13.0107 16.8503V11.1172H15.3347L17.1973 15.2278L18.9138 11.1172H21.2262V17.1839H19.8192L19.8077 12.4301L17.7564 17.1839H16.4977L14.4349 12.4301V17.1839H11.5403L10.9915 15.8239H8.02672L7.47909 17.1827H5.92819L8.4777 11.1172ZM8.53296 14.5666L9.50973 12.1437L10.4854 14.5666H8.53296Z" fill="#FEFEFE"/>
</svg>
