<svg width="40" height="28" viewBox="0 0 40 28" fill="none" xmlns="http://www.w3.org/2000/svg">
<rect x="0.5" y="0.5" width="39" height="27" rx="3.5" fill="#FEFEFE" stroke="#D9D9D9"/>
<path fill-rule="evenodd" clip-rule="evenodd" d="M9.53852 10.4218C10.0757 10.4681 10.6129 10.1443 10.9486 9.7337C11.2788 9.31159 11.497 8.74492 11.4411 8.16669C10.9654 8.18982 10.3779 8.4905 10.0421 8.91261C9.73437 9.2769 9.47137 9.8667 9.53852 10.4218ZM15.9289 17.8695V8.8548H19.2024C20.8923 8.8548 22.073 10.0575 22.073 11.8154C22.073 13.5732 20.8699 14.7875 19.1576 14.7875H17.283V17.8695H15.9289ZM11.4354 10.5317C10.9622 10.5035 10.5304 10.6788 10.1816 10.8203C9.95711 10.9114 9.76703 10.9885 9.62242 10.9885C9.46015 10.9885 9.26222 10.9072 9.04 10.816C8.74882 10.6965 8.41592 10.5598 8.06681 10.5664C7.26662 10.5779 6.52239 11.0463 6.1139 11.7922C5.27455 13.2841 5.89567 15.4929 6.70705 16.7072C7.10435 17.3086 7.57998 17.9678 8.20671 17.9446C8.48243 17.9339 8.68076 17.8469 8.88602 17.7569C9.12233 17.6533 9.36782 17.5457 9.75113 17.5457C10.1211 17.5457 10.3559 17.6505 10.5812 17.7511C10.7955 17.8468 11.0013 17.9387 11.3067 17.9331C11.9558 17.9215 12.3643 17.3317 12.7616 16.7304C13.1904 16.0849 13.3788 15.455 13.4074 15.3594L13.4107 15.3484C13.41 15.3477 13.4047 15.3452 13.3954 15.3407C13.2521 15.2729 12.1566 14.7547 12.1461 13.365C12.1355 12.1986 13.015 11.6076 13.1534 11.5146C13.1619 11.5089 13.1675 11.5051 13.1701 11.5031C12.6105 10.6473 11.7376 10.5548 11.4354 10.5317ZM24.5463 17.9388C25.3969 17.9388 26.1859 17.4936 26.544 16.7881H26.572V17.8694H27.8254V13.3823C27.8254 12.0813 26.8182 11.2429 25.2682 11.2429C23.8301 11.2429 22.7669 12.0929 22.7277 13.2609H23.9476C24.0483 12.7058 24.5463 12.3415 25.229 12.3415C26.0572 12.3415 26.5216 12.7405 26.5216 13.4748V13.9721L24.8317 14.0762C23.2593 14.1745 22.4088 14.8395 22.4088 15.996C22.4088 17.164 23.2873 17.9388 24.5463 17.9388ZM24.91 16.8691C24.1881 16.8691 23.7293 16.5106 23.7293 15.9613C23.7293 15.3946 24.1713 15.065 25.0163 15.013L26.5215 14.9147V15.4235C26.5215 16.2678 25.8277 16.8691 24.91 16.8691ZM31.983 18.2222C31.4402 19.8008 30.8191 20.3212 29.4985 20.3212C29.3978 20.3212 29.062 20.3096 28.9837 20.2865V19.2052C29.0676 19.2167 29.2747 19.2283 29.381 19.2283C29.9797 19.2283 30.3155 18.9681 30.5225 18.2916L30.6456 17.8926L28.3514 11.3296H29.7671L31.3619 16.6552H31.3899L32.9846 11.3296H34.3612L31.983 18.2222ZM17.2829 10.0344H18.8441C20.0192 10.0344 20.6907 10.682 20.6907 11.8211C20.6907 12.9602 20.0192 13.6136 18.8385 13.6136H17.2829V10.0344Z" fill="#1A1A1A"/>
</svg>
