<svg width="32" height="32" viewBox="0 0 32 32" fill="none" xmlns="http://www.w3.org/2000/svg">
<circle cx="16" cy="16" r="16" fill="#1A1A1A"/>
<path d="M19.8958 25.625C20.7817 25.625 21.5 24.9068 21.5 24.0208C21.5 23.1349 20.7817 22.4167 19.8958 22.4167C19.0098 22.4167 18.2916 23.1349 18.2916 24.0208C18.2916 24.9068 19.0098 25.625 19.8958 25.625Z" fill="#FEFEFE"/>
<path d="M12.5625 25.625C13.4485 25.625 14.1667 24.9068 14.1667 24.0208C14.1667 23.1349 13.4485 22.4167 12.5625 22.4167C11.6766 22.4167 10.9584 23.1349 10.9584 24.0208C10.9584 24.9068 11.6766 25.625 12.5625 25.625Z" fill="#FEFEFE"/>
<path d="M9.43671 8.61168L9.25337 10.8575C9.21671 11.2883 9.55587 11.6458 9.98671 11.6458H24.0209C24.4059 11.6458 24.7267 11.3525 24.7542 10.9675C24.8734 9.34501 23.6359 8.02501 22.0134 8.02501H10.7475C10.6559 7.62168 10.4725 7.23668 10.1884 6.91584C9.73004 6.43001 9.08837 6.14584 8.42837 6.14584H6.83337C6.45754 6.14584 6.14587 6.45751 6.14587 6.83334C6.14587 7.20918 6.45754 7.52084 6.83337 7.52084H8.42837C8.71254 7.52084 8.97837 7.64001 9.17087 7.84168C9.36337 8.05251 9.45504 8.32751 9.43671 8.61168Z" fill="#FEFEFE"/>
<path d="M23.8008 13.0208H9.73917C9.35417 13.0208 9.04251 13.3142 9.00584 13.69L8.67584 17.6775C8.54751 19.245 9.77584 20.5833 11.3433 20.5833H21.5367C22.9117 20.5833 24.1217 19.4558 24.2225 18.0808L24.525 13.8C24.5617 13.3783 24.2317 13.0208 23.8008 13.0208Z" fill="#FEFEFE"/>
</svg>
