<svg width="32" height="32" viewBox="0 0 32 32" fill="none" xmlns="http://www.w3.org/2000/svg">
<circle cx="16" cy="16" r="16" fill="#FEFEFE"/>
<rect width="22" height="22" transform="translate(5 5)" fill="#FEFEFE"/>
<path d="M6.83337 6.83334H8.42838C9.41838 6.83334 10.1975 7.68584 10.115 8.66668L9.35421 17.7967C9.22587 19.2908 10.4084 20.5742 11.9117 20.5742H21.6742C22.9942 20.5742 24.1492 19.4925 24.25 18.1817L24.745 11.3067C24.855 9.78501 23.7 8.54751 22.1692 8.54751H10.335" stroke="#1A1A1A" stroke-width="1.5" stroke-miterlimit="10" stroke-linecap="round" stroke-linejoin="round"/>
<path d="M19.8958 25.1667C20.5287 25.1667 21.0417 24.6537 21.0417 24.0208C21.0417 23.388 20.5287 22.875 19.8958 22.875C19.263 22.875 18.75 23.388 18.75 24.0208C18.75 24.6537 19.263 25.1667 19.8958 25.1667Z" stroke="#1A1A1A" stroke-width="1.5" stroke-miterlimit="10" stroke-linecap="round" stroke-linejoin="round"/>
<path d="M12.5625 25.1667C13.1953 25.1667 13.7083 24.6537 13.7083 24.0208C13.7083 23.388 13.1953 22.875 12.5625 22.875C11.9296 22.875 11.4166 23.388 11.4166 24.0208C11.4166 24.6537 11.9296 25.1667 12.5625 25.1667Z" stroke="#1A1A1A" stroke-width="1.5" stroke-miterlimit="10" stroke-linecap="round" stroke-linejoin="round"/>
<path d="M13.25 12.3333H24.25" stroke="#1A1A1A" stroke-width="1.5" stroke-miterlimit="10" stroke-linecap="round" stroke-linejoin="round"/>
</svg>
