<svg width="40" height="28" viewBox="0 0 40 28" fill="none" xmlns="http://www.w3.org/2000/svg">
<rect x="0.5" y="0.5" width="39" height="27" rx="3.5" fill="#FEFEFE" stroke="#D9D9D9"/>
<path fill-rule="evenodd" clip-rule="evenodd" d="M18.8916 18.3845V14.86H20.6735C21.4037 14.86 22.02 14.6102 22.5224 14.1177L22.643 13.9928C23.5607 12.9729 23.5004 11.3841 22.5224 10.4406C22.0334 9.94105 21.3635 9.67047 20.6735 9.68435H17.813V18.3845H18.8916ZM18.8917 13.7916V10.7528H20.7007C21.0893 10.7528 21.4578 10.9054 21.7325 11.1829C22.3154 11.7657 22.3288 12.737 21.766 13.3406C21.4913 13.639 21.1027 13.8055 20.7007 13.7916H18.8917ZM27.6739 12.8966C27.2117 12.4595 26.582 12.2375 25.7848 12.2375C24.7599 12.2375 23.9895 12.626 23.4804 13.3961L24.4316 14.0136C24.78 13.4863 25.2556 13.2227 25.8585 13.2227C26.2403 13.2227 26.6088 13.3684 26.8968 13.632C27.1782 13.8818 27.339 14.2426 27.339 14.6241V14.8808C26.9236 14.6449 26.4011 14.5201 25.758 14.5201C25.0077 14.5201 24.4048 14.7005 23.956 15.0682C23.5072 15.4359 23.2794 15.9215 23.2794 16.539C23.266 17.101 23.5005 17.6352 23.9158 17.996C24.3378 18.3845 24.8738 18.5787 25.5035 18.5787C26.247 18.5787 26.8365 18.2388 27.2854 17.5589H27.3323V18.3845H28.3639V14.7143C28.3639 13.9442 28.1361 13.3337 27.6739 12.8966ZM24.7467 17.2883C24.5256 17.1217 24.3916 16.8512 24.3916 16.5598C24.3916 16.2337 24.539 15.9631 24.8271 15.748C25.1219 15.533 25.4904 15.422 25.9259 15.422C26.5289 15.415 26.9979 15.5538 27.3329 15.8313C27.3329 16.3031 27.152 16.7124 26.7969 17.0593C26.4753 17.3923 26.0398 17.5796 25.5842 17.5796C25.2827 17.5866 24.9879 17.4825 24.7467 17.2883ZM30.6817 21.0001L34.2857 12.4318H33.1134L31.4454 16.7055H31.4253L29.7171 12.4318H28.5448L30.9095 18.0029L29.5697 21.0001H30.6817Z" fill="#1A1A1A"/>
<path d="M15.1681 14.0968C15.1681 13.7568 15.1413 13.4169 15.0877 13.0839H10.5392V15.0057H13.145C13.0379 15.6231 12.6895 16.1782 12.1804 16.5251V17.7739H13.7345C14.6456 16.9066 15.1681 15.6231 15.1681 14.0968Z" fill="#4285F4"/>
<path d="M10.5394 18.9811C11.839 18.9811 12.9376 18.5371 13.7348 17.7739L12.1806 16.5251C11.7452 16.8303 11.1892 17.0038 10.5394 17.0038C9.27997 17.0038 8.21485 16.1227 7.83301 14.9432H6.23196V16.2337C7.04923 17.9196 8.71726 18.9811 10.5394 18.9811Z" fill="#34A853"/>
<path d="M7.8332 14.9432C7.6322 14.3258 7.6322 13.6528 7.8332 13.0284V11.7449H6.2319C5.5418 13.1533 5.5418 14.8184 6.2319 16.2267L7.8332 14.9432Z" fill="#FBBC04"/>
<path d="M10.5394 10.9678C11.2294 10.954 11.8926 11.2245 12.3883 11.7171L13.7683 10.2879C12.8907 9.4415 11.7385 8.97666 10.5394 8.99054C8.71727 8.99054 7.04923 10.059 6.23196 11.7449L7.83301 13.0353C8.21485 11.8489 9.27997 10.9678 10.5394 10.9678Z" fill="#EA4335"/>
</svg>
