<svg width="32" height="32" viewBox="0 0 32 32" fill="none" xmlns="http://www.w3.org/2000/svg">
<rect width="32" height="32" rx="16" fill="#FEFEFE"/>
<path d="M16 2.66675C8.64002 2.66675 2.66669 8.64008 2.66669 16.0001C2.66669 23.3601 8.64002 29.3334 16 29.3334C23.36 29.3334 29.3334 23.3601 29.3334 16.0001C29.3334 8.64008 23.36 2.66675 16 2.66675ZM16.44 22.6667C16.2 22.7467 15.7867 22.7467 15.5467 22.6667C13.4667 21.9601 8.80002 18.9867 8.80002 13.9467C8.80002 11.7201 10.5867 9.92008 12.8 9.92008C14.1067 9.92008 15.2667 10.5467 16 11.5334C16.72 10.5601 17.8934 9.92008 19.2 9.92008C21.4134 9.92008 23.2 11.7201 23.2 13.9467C23.2 18.9867 18.5334 21.9601 16.44 22.6667Z" fill="#10413F"/>
</svg>
