<svg width="32" height="32" viewBox="0 0 32 32" fill="none" xmlns="http://www.w3.org/2000/svg">
<rect width="32" height="32" rx="16" fill="#FEFEFE"/>
<path d="M16 29.3334C23.3638 29.3334 29.3334 23.3639 29.3334 16.0001C29.3334 8.63628 23.3638 2.66675 16 2.66675C8.63622 2.66675 2.66669 8.63628 2.66669 16.0001C2.66669 23.3639 8.63622 29.3334 16 29.3334Z" stroke="#10413F" stroke-width="1.5" stroke-linecap="round" stroke-linejoin="round"/>
<path d="M16.44 23.2667C16.2 23.3467 15.7867 23.3467 15.5467 23.2667C13.4667 22.56 8.79999 19.5867 8.79999 14.5467C8.79999 12.32 10.5867 10.52 12.8 10.52C14.1067 10.52 15.2666 11.1467 16 12.1333C16.72 11.16 17.8933 10.52 19.2 10.52C21.4133 10.52 23.2 12.32 23.2 14.5467C23.2 19.5867 18.5333 22.56 16.44 23.2667Z" stroke="#10413F" stroke-width="1.5" stroke-linecap="round" stroke-linejoin="round"/>
</svg>
