<svg width="40" height="28" viewBox="0 0 40 28" fill="none" xmlns="http://www.w3.org/2000/svg">
<rect x="0.5" y="0.5" width="39" height="27" rx="3.5" fill="#FEFEFE" stroke="#D9D9D9"/>
<path fill-rule="evenodd" clip-rule="evenodd" d="M20.2857 20.0164C18.9239 21.2161 17.1574 21.9403 15.2272 21.9403C10.9201 21.9403 7.42856 18.3346 7.42856 13.8868C7.42856 9.43898 10.9201 5.83331 15.2272 5.83331C17.1574 5.83331 18.9239 6.55752 20.2857 7.75719C21.6475 6.55752 23.414 5.83331 25.3443 5.83331C29.6513 5.83331 33.1429 9.43898 33.1429 13.8868C33.1429 18.3346 29.6513 21.9403 25.3443 21.9403C23.414 21.9403 21.6475 21.2161 20.2857 20.0164Z" fill="#ED0006"/>
<path fill-rule="evenodd" clip-rule="evenodd" d="M20.2857 20.0164C21.9625 18.5392 23.0257 16.3412 23.0257 13.8868C23.0257 11.4323 21.9625 9.23434 20.2857 7.75718C21.6475 6.55752 23.414 5.83331 25.3443 5.83331C29.6513 5.83331 33.1429 9.43898 33.1429 13.8868C33.1429 18.3346 29.6513 21.9403 25.3443 21.9403C23.414 21.9403 21.6475 21.2161 20.2857 20.0164Z" fill="#F9A000"/>
<path fill-rule="evenodd" clip-rule="evenodd" d="M20.2857 7.7572C21.9625 9.23436 23.0257 11.4323 23.0257 13.8868C23.0257 16.3412 21.9625 18.5392 20.2857 20.0164C18.6089 18.5392 17.5457 16.3412 17.5457 13.8868C17.5457 11.4323 18.6089 9.23436 20.2857 7.7572Z" fill="#FF5E00"/>
</svg>
