<svg width="582" height="54" viewBox="0 0 582 54" fill="none" xmlns="http://www.w3.org/2000/svg">
<rect x="0.5" y="0.5" width="581" height="53" rx="7.5" stroke="#10413F"/>
<g clip-path="url(#clip0_100_2736)">
<path d="M272.38 19.3804H268.558C268.313 19.3804 268.068 19.6554 268.019 19.9992L266.5 33.7492C266.451 34.0242 266.598 34.2304 266.794 34.2304H268.607C268.852 34.2304 269.097 33.9554 269.146 33.6117L269.538 29.8992C269.587 29.5554 269.783 29.2804 270.077 29.2804H271.302C273.801 29.2804 275.271 27.5617 275.663 24.1929C275.81 22.7492 275.663 21.5804 275.173 20.7554C274.634 19.8617 273.654 19.3804 272.38 19.3804ZM272.821 24.3992C272.625 26.3242 271.547 26.3242 270.567 26.3242H269.979L270.371 22.7492C270.371 22.5429 270.518 22.4054 270.665 22.4054H270.91C271.596 22.4054 272.233 22.4054 272.576 22.9554C272.821 23.2304 272.919 23.7117 272.821 24.3992Z" fill="#003087"/>
<path d="M283.748 24.3304H281.935C281.788 24.3304 281.641 24.4679 281.641 24.6742L281.543 25.3617L281.396 25.0867C281.004 24.2617 280.122 23.9867 279.24 23.9867C277.231 23.9867 275.516 26.1179 275.173 29.1429C274.977 30.6554 275.222 32.0992 275.859 33.0617C276.398 33.9554 277.231 34.3679 278.162 34.3679C279.779 34.3679 280.71 32.9242 280.71 32.9242L280.612 33.6117C280.563 33.8867 280.71 34.1617 280.906 34.1617H282.572C282.817 34.1617 283.062 33.8867 283.111 33.5429L284.091 24.7429C284.14 24.6054 283.944 24.3304 283.748 24.3304ZM281.249 29.2804C281.053 30.7242 280.269 31.7554 279.191 31.7554C278.652 31.7554 278.26 31.5492 277.966 31.0679C277.672 30.5867 277.574 29.9679 277.672 29.2804C277.819 27.8367 278.701 26.8054 279.73 26.8054C280.269 26.8054 280.661 27.0804 280.955 27.4929C281.2 27.9742 281.298 28.5929 281.249 29.2804Z" fill="#003087"/>
<path d="M293.499 24.3304H291.686C291.49 24.3304 291.343 24.4679 291.245 24.6742L288.697 29.8992L287.619 24.8804C287.57 24.5367 287.325 24.3304 287.129 24.3304H285.316C285.12 24.3304 284.924 24.6054 285.022 24.9492L287.031 33.2679L285.12 36.9804C284.973 37.2554 285.12 37.6679 285.365 37.6679H287.178C287.374 37.6679 287.521 37.5304 287.619 37.3242L293.744 24.9492C293.891 24.7429 293.744 24.3304 293.499 24.3304Z" fill="#003087"/>
<path d="M299.575 19.3804H295.753C295.508 19.3804 295.263 19.6554 295.214 19.9992L293.695 33.6804C293.646 33.9554 293.793 34.1617 293.989 34.1617H295.949C296.145 34.1617 296.292 33.9554 296.292 33.7492L296.733 29.8304C296.782 29.4867 296.978 29.2117 297.272 29.2117H298.497C300.996 29.2117 302.466 27.4929 302.858 24.1242C303.005 22.6804 302.858 21.5117 302.368 20.6867C301.78 19.8617 300.849 19.3804 299.575 19.3804ZM300.016 24.3992C299.82 26.3242 298.742 26.3242 297.762 26.3242H297.174L297.566 22.7492C297.566 22.5429 297.713 22.4054 297.86 22.4054H298.105C298.791 22.4054 299.428 22.4054 299.771 22.9554C300.016 23.2304 300.065 23.7117 300.016 24.3992Z" fill="#009CDE"/>
<path d="M310.943 24.3304H309.13C308.983 24.3304 308.836 24.4679 308.836 24.6742L308.738 25.3617L308.591 25.0867C308.199 24.2617 307.317 23.9867 306.435 23.9867C304.426 23.9867 302.711 26.1179 302.368 29.1429C302.172 30.6554 302.417 32.0992 303.054 33.0617C303.593 33.9554 304.426 34.3679 305.357 34.3679C306.974 34.3679 307.905 32.9242 307.905 32.9242L307.807 33.6117C307.758 33.8867 307.905 34.1617 308.101 34.1617H309.767C310.012 34.1617 310.257 33.8867 310.306 33.5429L311.286 24.7429C311.286 24.6054 311.139 24.3304 310.943 24.3304ZM308.395 29.2804C308.199 30.7242 307.415 31.7554 306.337 31.7554C305.798 31.7554 305.406 31.5492 305.112 31.0679C304.818 30.5867 304.72 29.9679 304.818 29.2804C304.965 27.8367 305.847 26.8054 306.876 26.8054C307.415 26.8054 307.807 27.0804 308.101 27.4929C308.395 27.9742 308.493 28.5929 308.395 29.2804Z" fill="#009CDE"/>
<path d="M313.099 19.7242L311.531 33.6804C311.482 33.9554 311.629 34.1617 311.825 34.1617H313.393C313.638 34.1617 313.883 33.8867 313.932 33.5429L315.5 19.8617C315.549 19.5867 315.402 19.3804 315.206 19.3804H313.442C313.246 19.3804 313.148 19.5179 313.099 19.7242Z" fill="#009CDE"/>
</g>
<defs>
<clipPath id="clip0_100_2736">
<rect width="49" height="22" fill="white" transform="translate(266.5 16)"/>
</clipPath>
</defs>
</svg>
