<svg width="200" height="200" viewBox="0 0 200 200" fill="none" xmlns="http://www.w3.org/2000/svg">
<path d="M99.9998 16.6666C54.0832 16.6666 16.6665 54.0833 16.6665 100C16.6665 145.917 54.0832 183.333 99.9998 183.333C145.917 183.333 183.333 145.917 183.333 100C183.333 54.0833 145.917 16.6666 99.9998 16.6666ZM139.833 80.8333L92.5832 128.083C91.4165 129.25 89.8332 129.917 88.1665 129.917C86.4998 129.917 84.9165 129.25 83.7498 128.083L60.1665 104.5C57.7498 102.083 57.7498 98.0833 60.1665 95.6666C62.5832 93.25 66.5832 93.25 68.9998 95.6666L88.1665 114.833L131 72C133.417 69.5833 137.417 69.5833 139.833 72C142.25 74.4166 142.25 78.3333 139.833 80.8333Z" fill="#4BB543"/>
</svg>
