<svg width="40" height="28" viewBox="0 0 40 28" fill="none" xmlns="http://www.w3.org/2000/svg">
<rect x="0.5" y="0.5" width="39" height="27" rx="3.5" fill="#FEFEFE" stroke="#D9D9D9"/>
<path fill-rule="evenodd" clip-rule="evenodd" d="M12.1431 18.968H9.71992L7.9028 11.8911C7.81655 11.5656 7.63342 11.2778 7.36404 11.1422C6.69178 10.8013 5.95099 10.53 5.14285 10.3932V10.1207H9.04648C9.58523 10.1207 9.9893 10.53 10.0566 11.0053L10.9995 16.1101L13.4215 10.1207H15.7774L12.1431 18.968ZM17.1243 18.968H14.8358L16.7202 10.1207H19.0088L17.1243 18.968ZM21.9696 12.5717C22.0369 12.0952 22.441 11.8227 22.9124 11.8227C23.6532 11.7543 24.4601 11.8911 25.1336 12.2308L25.5376 10.326C24.8642 10.0535 24.1234 9.91669 23.4511 9.91669C21.2299 9.91669 19.6137 11.1422 19.6137 12.843C19.6137 14.1368 20.7585 14.8162 21.5667 15.2255C22.441 15.6336 22.7777 15.9061 22.7104 16.3142C22.7104 16.9263 22.0369 17.1988 21.3646 17.1988C20.5565 17.1988 19.7484 16.9947 19.0088 16.6539L18.6047 18.5599C19.4128 18.8996 20.2871 19.0364 21.0953 19.0364C23.5858 19.1036 25.1336 17.8793 25.1336 16.0417C25.1336 13.7276 21.9696 13.5919 21.9696 12.5717ZM33.1429 18.968L31.3257 10.1207H29.3739C28.9698 10.1207 28.5658 10.3932 28.4311 10.8013L25.0662 18.968H27.4221L27.8923 17.6753H30.787L31.0564 18.968H33.1429ZM29.7106 12.5033L30.3829 15.8377H28.4984L29.7106 12.5033Z" fill="#172B85"/>
</svg>
